<?xml version="1.0" encoding="UTF-8" standalone="no"?>
<!DOCTYPE svg PUBLIC "-//W3C//DTD SVG 1.1//EN" "http://www.w3.org/Graphics/SVG/1.1/DTD/svg11.dtd">
<svg width="100%" height="100%" viewBox="0 0 521 521" version="1.1" xmlns="http://www.w3.org/2000/svg" xmlns:xlink="http://www.w3.org/1999/xlink" xml:space="preserve" xmlns:serif="http://www.serif.com/" style="fill-rule:evenodd;clip-rule:evenodd;stroke-linejoin:round;stroke-miterlimit:2;">
    <g transform="matrix(1,0,0,1,-91.806457,-794.967298)">
        <g transform="matrix(0.707107,0.707107,-0.707107,0.707107,849.373562,60.080035)">
            <g transform="matrix(0,0.832944,-0.832944,0,1241.331721,803.358977)">
                <path d="M548,905.528L548,1229.472C548,1275.572 510.572,1313 464.472,1313L140.528,1313C94.428,1313 57,1275.572 57,1229.472L57,905.528C57,859.428 94.428,822 140.528,822L464.472,822C510.572,822 548,859.428 548,905.528Z" style="fill:rgb(0,120,253);"/>
            </g>
            <g transform="matrix(1.190992,-0,0,1.190992,-1.560975,-224.132314)">
                <path d="M396,988C396,1000.694 385.694,1011 373,1011L221,1011C208.306,1011 198,1000.694 198,988C198,975.306 208.306,965 221,965L373,965C385.694,965 396,975.306 396,988Z" style="fill:white;"/>
            </g>
            <g transform="matrix(1.190992,-0,0,1.190992,-1.560975,-120.481141)">
                <path d="M396,988C396,1000.694 385.694,1011 373,1011L221,1011C208.306,1011 198,1000.694 198,988C198,975.306 208.306,965 221,965L373,965C385.694,965 396,975.306 396,988Z" style="fill:white;"/>
            </g>
            <g transform="matrix(1.190992,-0,0,1.190992,-1.560975,-14.985199)">
                <path d="M396,988C396,1000.694 385.694,1011 373,1011L221,1011C208.306,1011 198,1000.694 198,988C198,975.306 208.306,965 221,965L373,965C385.694,965 396,975.306 396,988Z" style="fill:white;"/>
            </g>
        </g>
    </g>
</svg>
