<?xml version="1.0" encoding="UTF-8" standalone="no"?>
<!DOCTYPE svg PUBLIC "-//W3C//DTD SVG 1.1//EN" "http://www.w3.org/Graphics/SVG/1.1/DTD/svg11.dtd">
<svg width="100%" height="100%" viewBox="0 0 2363 521" version="1.1" xmlns="http://www.w3.org/2000/svg" xmlns:xlink="http://www.w3.org/1999/xlink" xml:space="preserve" xmlns:serif="http://www.serif.com/" style="fill-rule:evenodd;clip-rule:evenodd;stroke-linejoin:round;stroke-miterlimit:2;">
    <g transform="matrix(1,0,0,1,-91.806457,-794.967298)">
        <g transform="matrix(0.707107,0.707107,-0.707107,0.707107,849.373562,60.080035)">
            <g transform="matrix(0,0.832944,-0.832944,0,1241.331721,803.358977)">
                <path d="M548,905.528L548,1229.472C548,1275.572 510.572,1313 464.472,1313L140.528,1313C94.428,1313 57,1275.572 57,1229.472L57,905.528C57,859.428 94.428,822 140.528,822L464.472,822C510.572,822 548,859.428 548,905.528Z" style="fill:rgb(0,120,253);"/>
            </g>
            <g transform="matrix(1.190992,-0,0,1.190992,-1.560975,-224.132314)">
                <path d="M396,988C396,1000.694 385.694,1011 373,1011L221,1011C208.306,1011 198,1000.694 198,988C198,975.306 208.306,965 221,965L373,965C385.694,965 396,975.306 396,988Z" style="fill:white;"/>
            </g>
            <g transform="matrix(1.190992,-0,0,1.190992,-1.560975,-120.481141)">
                <path d="M396,988C396,1000.694 385.694,1011 373,1011L221,1011C208.306,1011 198,1000.694 198,988C198,975.306 208.306,965 221,965L373,965C385.694,965 396,975.306 396,988Z" style="fill:white;"/>
            </g>
            <g transform="matrix(1.190992,-0,0,1.190992,-1.560975,-14.985199)">
                <path d="M396,988C396,1000.694 385.694,1011 373,1011L221,1011C208.306,1011 198,1000.694 198,988C198,975.306 208.306,965 221,965L373,965C385.694,965 396,975.306 396,988Z" style="fill:white;"/>
            </g>
        </g>
        <g transform="matrix(0.277628,0,0,0.277628,100.721167,716.105874)">
            <path d="M2440,735L2380,1691L2558,1691C2558,1691 2602,1044 2605,1048C2612,1056 2819,1607 2819,1607L2890,1607C2943.194,1607 2967.261,1607.099 2967.261,1607.099L3176.385,1051.686L3225,1691L3397,1691L3335,735L3225,738L3116,741L2897.832,1341.008L2675,735L2440,735Z" style="fill:white;fill-rule:nonzero;"/>
        </g>
        <g transform="matrix(1,0,0,1,74.833148,-327.282381)">
            <path d="M1010.513,1513L1010.513,1315.616L1063.479,1315.616L1063.479,1513L1010.513,1513ZM1036.996,1289.84C1028.992,1289.84 1022.166,1287.192 1016.516,1281.895C1010.867,1276.599 1008.042,1270.184 1008.042,1262.651C1008.042,1255.118 1010.867,1248.703 1016.516,1243.407C1022.166,1238.11 1028.992,1235.462 1036.996,1235.462C1045,1235.462 1051.856,1238.081 1057.564,1243.319C1063.273,1248.556 1066.127,1255 1066.127,1262.651C1066.127,1270.184 1063.273,1276.599 1057.564,1281.895C1051.856,1287.192 1045,1289.84 1036.996,1289.84Z" style="fill:white;fill-rule:nonzero;"/>
            <rect x="1108.528" y="1249.939" width="52.943" height="263.061" style="fill:white;fill-rule:nonzero;"/>
            <path d="M1295.855,1516.857C1275.706,1516.857 1258.336,1512.731 1243.744,1504.479C1229.152,1496.227 1217.944,1484.509 1210.12,1469.326C1202.297,1454.142 1198.385,1436.142 1198.385,1415.326C1198.385,1395.017 1202.272,1377.201 1210.046,1361.878C1217.82,1346.555 1228.815,1334.602 1243.032,1326.019C1257.249,1317.436 1273.97,1313.145 1293.196,1313.145C1306.086,1313.145 1318.13,1315.198 1329.328,1319.306C1340.526,1323.413 1350.354,1329.608 1358.811,1337.889C1367.268,1346.171 1373.872,1356.576 1378.624,1369.107C1383.376,1381.637 1385.753,1396.357 1385.753,1413.265L1385.753,1428.129L1220.115,1428.129L1220.115,1394.81L1359.951,1394.81L1335.207,1403.743C1335.207,1393.466 1333.637,1384.535 1330.499,1376.95C1327.361,1369.364 1322.711,1363.48 1316.55,1359.297C1310.389,1355.114 1302.731,1353.023 1293.576,1353.023C1284.422,1353.023 1276.656,1355.142 1270.279,1359.379C1263.902,1363.616 1259.049,1369.364 1255.72,1376.624C1252.391,1383.884 1250.727,1392.139 1250.727,1401.39L1250.727,1424.843C1250.727,1436.262 1252.638,1445.854 1256.459,1453.62C1260.281,1461.385 1265.657,1467.22 1272.586,1471.123C1279.516,1475.026 1287.553,1476.978 1296.696,1476.978C1302.878,1476.978 1308.495,1476.098 1313.547,1474.338C1318.6,1472.578 1322.945,1469.973 1326.582,1466.522C1330.219,1463.071 1332.987,1458.817 1334.887,1453.762L1382.765,1462.617C1379.578,1473.521 1374.05,1483.041 1366.18,1491.177C1358.311,1499.313 1348.451,1505.627 1336.601,1510.119C1324.751,1514.611 1311.169,1516.857 1295.855,1516.857Z" style="fill:white;fill-rule:nonzero;"/>
            <path d="M1500.394,1516.857C1484.508,1516.857 1470.44,1514.583 1458.189,1510.036C1445.938,1505.489 1435.938,1498.902 1428.19,1490.276C1420.442,1481.65 1415.424,1471.242 1413.134,1459.053L1462.485,1450.576C1465.056,1459.751 1469.572,1466.631 1476.033,1471.215C1482.494,1475.8 1491.132,1478.093 1501.947,1478.093C1512.033,1478.093 1520.006,1476.167 1525.866,1472.316C1531.726,1468.465 1534.656,1463.591 1534.656,1457.693C1534.656,1452.519 1532.575,1448.287 1528.412,1444.995C1524.249,1441.703 1517.823,1439.161 1509.133,1437.37L1475.153,1430.363C1456.119,1426.444 1441.897,1419.819 1432.487,1410.487C1423.077,1401.156 1418.373,1389.101 1418.373,1374.322C1418.373,1361.688 1421.821,1350.807 1428.717,1341.68C1435.614,1332.552 1445.263,1325.515 1457.666,1320.567C1470.069,1315.619 1484.576,1313.145 1501.189,1313.145C1516.823,1313.145 1530.346,1315.302 1541.759,1319.616C1553.173,1323.931 1562.392,1330.014 1569.416,1337.866C1576.44,1345.718 1581.169,1355.024 1583.602,1365.784L1536.617,1374.057C1534.545,1367.313 1530.662,1361.804 1524.969,1357.53C1519.276,1353.256 1511.631,1351.119 1502.033,1351.119C1493.314,1351.119 1486.01,1352.953 1480.121,1356.62C1474.232,1360.287 1471.288,1365.128 1471.288,1371.141C1471.288,1376.087 1473.19,1380.274 1476.993,1383.703C1480.796,1387.132 1487.352,1389.818 1496.662,1391.762L1532.124,1398.824C1551.222,1402.681 1565.433,1409.004 1574.757,1417.795C1584.08,1426.586 1588.741,1438.035 1588.741,1452.142C1588.741,1465.077 1584.967,1476.395 1577.417,1486.098C1569.868,1495.801 1559.459,1503.353 1546.19,1508.755C1532.921,1514.156 1517.656,1516.857 1500.394,1516.857Z" style="fill:white;fill-rule:nonzero;"/>
            <path d="M1722.621,1315.616L1722.621,1355.961L1605.513,1355.961L1605.513,1315.616L1722.621,1315.616ZM1632.693,1268.654L1685.637,1268.654L1685.637,1455.221C1685.637,1461.507 1687.035,1466.14 1689.831,1469.12C1692.627,1472.1 1697.218,1473.591 1703.603,1473.591C1705.669,1473.591 1708.515,1473.34 1712.143,1472.837C1715.77,1472.335 1718.529,1471.849 1720.42,1471.378L1728,1511.083C1722.099,1512.832 1716.248,1514.048 1710.449,1514.732C1704.649,1515.417 1699.087,1515.759 1693.761,1515.759C1673.961,1515.759 1658.833,1510.954 1648.377,1501.346C1637.921,1491.738 1632.693,1477.918 1632.693,1459.886L1632.693,1268.654Z" style="fill:white;fill-rule:nonzero;"/>
            <path d="M1841.745,1516.857C1821.948,1516.857 1804.818,1512.603 1790.356,1504.097C1775.895,1495.59 1764.755,1483.702 1756.936,1468.433C1749.117,1453.164 1745.208,1435.408 1745.208,1415.163C1745.208,1394.755 1749.117,1376.903 1756.936,1361.608C1764.755,1346.312 1775.895,1334.411 1790.356,1325.904C1804.818,1317.398 1821.948,1313.145 1841.745,1313.145C1861.596,1313.145 1878.734,1317.398 1893.159,1325.904C1907.583,1334.411 1918.706,1346.312 1926.525,1361.608C1934.345,1376.903 1938.255,1394.755 1938.255,1415.163C1938.255,1435.408 1934.345,1453.164 1926.525,1468.433C1918.706,1483.702 1907.583,1495.59 1893.159,1504.097C1878.734,1512.603 1861.596,1516.857 1841.745,1516.857ZM1841.745,1475.18C1851.169,1475.18 1859.048,1472.561 1865.384,1467.323C1871.719,1462.085 1876.47,1454.922 1879.636,1445.833C1882.802,1436.745 1884.385,1426.458 1884.385,1414.973C1884.385,1403.368 1882.802,1393.042 1879.636,1383.995C1876.47,1374.948 1871.719,1367.824 1865.384,1362.623C1859.048,1357.422 1851.169,1354.822 1841.745,1354.822C1832.313,1354.822 1824.439,1357.422 1818.126,1362.623C1811.812,1367.824 1807.072,1374.935 1803.905,1383.955C1800.738,1392.976 1799.155,1403.315 1799.155,1414.973C1799.155,1426.458 1800.738,1436.745 1803.905,1445.833C1807.072,1454.922 1811.812,1462.085 1818.126,1467.323C1824.439,1472.561 1832.313,1475.18 1841.745,1475.18Z" style="fill:white;fill-rule:nonzero;"/>
            <path d="M2028.111,1398.714L2028.111,1513L1975.168,1513L1975.168,1315.616L2025.159,1315.616L2026.004,1364.89L2022.828,1364.89C2028.005,1348.427 2035.869,1335.687 2046.42,1326.67C2056.971,1317.653 2070.578,1313.145 2087.242,1313.145C2100.923,1313.145 2112.845,1316.119 2123.009,1322.069C2133.172,1328.018 2141.065,1336.543 2146.687,1347.644C2152.309,1358.744 2155.12,1372.016 2155.12,1387.459L2155.12,1513L2102.177,1513L2102.177,1396.683C2102.177,1384.424 2099.015,1374.809 2092.692,1367.838C2086.368,1360.867 2077.624,1357.382 2066.459,1357.382C2059.012,1357.382 2052.397,1359.012 2046.612,1362.274C2040.827,1365.535 2036.297,1370.235 2033.023,1376.373C2029.748,1382.511 2028.111,1389.958 2028.111,1398.714Z" style="fill:white;fill-rule:nonzero;"/>
            <path d="M2289.506,1516.857C2269.357,1516.857 2251.986,1512.731 2237.394,1504.479C2222.802,1496.227 2211.594,1484.509 2203.771,1469.326C2195.948,1454.142 2192.036,1436.142 2192.036,1415.326C2192.036,1395.017 2195.923,1377.201 2203.697,1361.878C2211.47,1346.555 2222.466,1334.602 2236.683,1326.019C2250.899,1317.436 2267.621,1313.145 2286.846,1313.145C2299.736,1313.145 2311.781,1315.198 2322.979,1319.306C2334.177,1323.413 2344.004,1329.608 2352.461,1337.889C2360.918,1346.171 2367.523,1356.576 2372.275,1369.107C2377.027,1381.637 2379.403,1396.357 2379.403,1413.265L2379.403,1428.129L2213.765,1428.129L2213.765,1394.81L2353.602,1394.81L2328.857,1403.743C2328.857,1393.466 2327.288,1384.535 2324.15,1376.95C2321.011,1369.364 2316.362,1363.48 2310.201,1359.297C2304.04,1355.114 2296.382,1353.023 2287.227,1353.023C2278.072,1353.023 2270.306,1355.142 2263.929,1359.379C2257.552,1363.616 2252.699,1369.364 2249.371,1376.624C2246.042,1383.884 2244.378,1392.139 2244.378,1401.39L2244.378,1424.843C2244.378,1436.262 2246.288,1445.854 2250.11,1453.62C2253.932,1461.385 2259.307,1467.22 2266.237,1471.123C2273.167,1475.026 2281.203,1476.978 2290.347,1476.978C2296.528,1476.978 2302.145,1476.098 2307.198,1474.338C2312.251,1472.578 2316.596,1469.973 2320.232,1466.522C2323.869,1463.071 2326.637,1458.817 2328.537,1453.762L2376.416,1462.617C2373.228,1473.521 2367.7,1483.041 2359.831,1491.177C2351.961,1499.313 2342.102,1505.627 2330.252,1510.119C2318.402,1514.611 2304.82,1516.857 2289.506,1516.857Z" style="fill:white;fill-rule:nonzero;"/>
        </g>
    </g>
</svg>
